<?xml version="1.0" encoding="UTF-8"?>
<svg xmlns="http://www.w3.org/2000/svg" xmlns:xlink="http://www.w3.org/1999/xlink" fill-opacity="1" color-rendering="auto" color-interpolation="auto" stroke="black" text-rendering="auto" stroke-linecap="square" width="308" stroke-miterlimit="10" stroke-opacity="1" shape-rendering="auto" fill="black" stroke-dasharray="none" font-weight="normal" stroke-width="1" height="200" font-family="'Dialog'" font-style="normal" stroke-linejoin="miter" font-size="12" stroke-dashoffset="0" image-rendering="auto">
  <!--Generated by ySVG-->
  <defs id="genericDefs"/>
  <g>
    <defs id="defs1">
      <clipPath clipPathUnits="userSpaceOnUse" id="clipPath1">
        <path d="M0 0 L308 0 L308 200 L0 200 L0 0 Z"/>
      </clipPath>
      <clipPath clipPathUnits="userSpaceOnUse" id="clipPath2">
        <path d="M449 336 L757 336 L757 536 L449 536 L449 336 Z"/>
      </clipPath>
    </defs>
    <g fill="white" transform="translate(-449,-336)" stroke="white">
      <rect x="449" width="308" height="200" y="336" clip-path="url(#clipPath2)" stroke="none"/>
    </g>
    <g stroke-linecap="butt" transform="matrix(1,0,0,1,-449,-336)" stroke-miterlimit="1.45">
      <circle fill="none" r="15" clip-path="url(#clipPath2)" cx="567" cy="366"/>
      <text x="503.9414" xml:space="preserve" y="438.5352" font-family="sans-serif" clip-path="url(#clipPath2)" stroke="none">s</text>
      <circle fill="none" r="15" clip-path="url(#clipPath2)" cx="507" cy="434"/>
      <circle fill="none" r="15" clip-path="url(#clipPath2)" cx="627" cy="434"/>
      <text x="724.7559" xml:space="preserve" y="438.5352" font-family="sans-serif" clip-path="url(#clipPath2)" stroke="none">t</text>
      <circle fill="none" r="15" clip-path="url(#clipPath2)" cx="727" cy="434"/>
      <circle fill="none" r="15" clip-path="url(#clipPath2)" cx="567" cy="506"/>
      <path fill="none" d="M552 366 L507 366 L507 411" clip-path="url(#clipPath2)"/>
      <path d="M507 419 L512 407 L507 410 L502 407 Z" clip-path="url(#clipPath2)" stroke="none"/>
      <text x="466.2656" xml:space="preserve" y="370.5352" font-family="sans-serif" clip-path="url(#clipPath2)" stroke="none">1/1</text>
      <path fill="none" d="M522 434 L604 434" clip-path="url(#clipPath2)"/>
      <path d="M612 434 L600 429 L603 434 L600 439 Z" clip-path="url(#clipPath2)" stroke="none"/>
      <text x="556.2656" xml:space="preserve" y="468.5352" font-family="sans-serif" clip-path="url(#clipPath2)" stroke="none">7/7</text>
      <path fill="none" d="M627 419 L627 366 L590 366" clip-path="url(#clipPath2)"/>
      <path d="M582 366 L594 371 L591 366 L594 361 Z" clip-path="url(#clipPath2)" stroke="none"/>
      <text x="646.2656" xml:space="preserve" y="370.5352" font-family="sans-serif" clip-path="url(#clipPath2)" stroke="none">1/1</text>
      <path fill="none" d="M642 434 L704 434" clip-path="url(#clipPath2)"/>
      <path d="M712 434 L700 429 L703 434 L700 439 Z" clip-path="url(#clipPath2)" stroke="none"/>
      <text x="666.2656" xml:space="preserve" y="468.5352" font-family="sans-serif" clip-path="url(#clipPath2)" stroke="none">5/5</text>
      <path fill="none" d="M627 449 L627 506 L590 506" clip-path="url(#clipPath2)"/>
      <path d="M582 506 L594 511 L591 506 L594 501 Z" clip-path="url(#clipPath2)" stroke="none"/>
      <text x="646.2656" xml:space="preserve" y="510.5352" font-family="sans-serif" clip-path="url(#clipPath2)" stroke="none">1/1</text>
      <path fill="none" d="M552 506 L507 506 L507 457" clip-path="url(#clipPath2)"/>
      <path d="M507 449 L502 461 L507 458 L512 461 Z" clip-path="url(#clipPath2)" stroke="none"/>
      <text x="466.2656" xml:space="preserve" y="510.5352" font-family="sans-serif" clip-path="url(#clipPath2)" stroke="none">1/1</text>
    </g>
  </g>
</svg>
