<?xml version="1.0" encoding="UTF-8"?>
<svg xmlns="http://www.w3.org/2000/svg" xmlns:xlink="http://www.w3.org/1999/xlink" fill-opacity="1" color-rendering="auto" color-interpolation="auto" stroke="black" text-rendering="auto" stroke-linecap="square" width="513" stroke-miterlimit="10" stroke-opacity="1" shape-rendering="auto" fill="black" stroke-dasharray="none" font-weight="normal" stroke-width="1" height="244" font-family="'Dialog'" font-style="normal" stroke-linejoin="miter" font-size="12" stroke-dashoffset="0" image-rendering="auto">
  <!--Generated by ySVG-->
  <defs id="genericDefs"/>
  <g>
    <defs id="defs1">
      <clipPath clipPathUnits="userSpaceOnUse" id="clipPath1">
        <path d="M0 0 L513 0 L513 244 L0 244 L0 0 Z"/>
      </clipPath>
      <clipPath clipPathUnits="userSpaceOnUse" id="clipPath2">
        <path d="M206 162 L719 162 L719 406 L206 406 L206 162 Z"/>
      </clipPath>
    </defs>
    <g fill="white" transform="translate(-206,-162)" stroke="white">
      <rect x="206" width="513" height="244" y="162" clip-path="url(#clipPath2)" stroke="none"/>
    </g>
    <g fill="olive" transform="matrix(1,0,0,1,-206,-162)" stroke="olive">
      <circle r="15" clip-path="url(#clipPath2)" cx="321" cy="192" stroke="none"/>
    </g>
    <g stroke-miterlimit="1.45" font-family="sans-serif" transform="matrix(1,0,0,1,-206,-162)" stroke-linecap="butt">
      <text x="317.2061" xml:space="preserve" y="196.5352" clip-path="url(#clipPath2)" stroke="none">R</text>
      <circle fill="none" r="15" clip-path="url(#clipPath2)" cx="321" cy="192"/>
    </g>
    <g fill="red" transform="matrix(1,0,0,1,-206,-162)" stroke="red">
      <circle r="15" clip-path="url(#clipPath2)" cx="321" cy="284" stroke="none"/>
    </g>
    <g stroke-linecap="butt" transform="matrix(1,0,0,1,-206,-162)" stroke-miterlimit="1.45">
      <circle fill="none" r="15" clip-path="url(#clipPath2)" cx="321" cy="284"/>
    </g>
    <g fill="olive" transform="matrix(1,0,0,1,-206,-162)" stroke="olive">
      <circle r="15" clip-path="url(#clipPath2)" cx="236" cy="376" stroke="none"/>
    </g>
    <g stroke-linecap="butt" transform="matrix(1,0,0,1,-206,-162)" stroke-miterlimit="1.45">
      <circle fill="none" r="15" clip-path="url(#clipPath2)" cx="236" cy="376"/>
    </g>
    <g fill="olive" transform="matrix(1,0,0,1,-206,-162)" stroke="olive">
      <circle r="15" clip-path="url(#clipPath2)" cx="321" cy="376" stroke="none"/>
    </g>
    <g stroke-linecap="butt" transform="matrix(1,0,0,1,-206,-162)" stroke-miterlimit="1.45">
      <circle fill="none" r="15" clip-path="url(#clipPath2)" cx="321" cy="376"/>
    </g>
    <g fill="olive" transform="matrix(1,0,0,1,-206,-162)" stroke="olive">
      <circle r="15" clip-path="url(#clipPath2)" cx="406" cy="376" stroke="none"/>
    </g>
    <g stroke-linecap="butt" transform="matrix(1,0,0,1,-206,-162)" stroke-miterlimit="1.45">
      <circle fill="none" r="15" clip-path="url(#clipPath2)" cx="406" cy="376"/>
    </g>
    <g fill="red" transform="matrix(1,0,0,1,-206,-162)" stroke="red">
      <circle r="15" clip-path="url(#clipPath2)" cx="604" cy="192" stroke="none"/>
    </g>
    <g stroke-miterlimit="1.45" font-family="sans-serif" transform="matrix(1,0,0,1,-206,-162)" stroke-linecap="butt">
      <text x="600.2061" xml:space="preserve" y="196.5352" clip-path="url(#clipPath2)" stroke="none">R</text>
      <circle fill="none" r="15" clip-path="url(#clipPath2)" cx="604" cy="192"/>
    </g>
    <g fill="olive" transform="matrix(1,0,0,1,-206,-162)" stroke="olive">
      <circle r="15" clip-path="url(#clipPath2)" cx="604" cy="284" stroke="none"/>
    </g>
    <g stroke-linecap="butt" transform="matrix(1,0,0,1,-206,-162)" stroke-miterlimit="1.45">
      <circle fill="none" r="15" clip-path="url(#clipPath2)" cx="604" cy="284"/>
    </g>
    <g fill="red" transform="matrix(1,0,0,1,-206,-162)" stroke="red">
      <circle r="15" clip-path="url(#clipPath2)" cx="689" cy="376" stroke="none"/>
    </g>
    <g stroke-linecap="butt" transform="matrix(1,0,0,1,-206,-162)" stroke-miterlimit="1.45">
      <circle fill="none" r="15" clip-path="url(#clipPath2)" cx="689" cy="376"/>
    </g>
    <g fill="red" transform="matrix(1,0,0,1,-206,-162)" stroke="red">
      <circle r="15" clip-path="url(#clipPath2)" cx="604" cy="376" stroke="none"/>
    </g>
    <g stroke-linecap="butt" transform="matrix(1,0,0,1,-206,-162)" stroke-miterlimit="1.45">
      <circle fill="none" r="15" clip-path="url(#clipPath2)" cx="604" cy="376"/>
    </g>
    <g fill="red" transform="matrix(1,0,0,1,-206,-162)" stroke="red">
      <circle r="15" clip-path="url(#clipPath2)" cx="519" cy="376" stroke="none"/>
    </g>
    <g stroke-linecap="butt" transform="matrix(1,0,0,1,-206,-162)" stroke-miterlimit="1.45">
      <circle fill="none" r="15" clip-path="url(#clipPath2)" cx="519" cy="376"/>
      <path fill="none" d="M321 207 L321 269" clip-path="url(#clipPath2)"/>
      <path fill="none" d="M310.8208 295.0175 L246.1792 364.9825" clip-path="url(#clipPath2)"/>
      <path fill="none" d="M321 299 L321 361" clip-path="url(#clipPath2)"/>
      <path fill="none" d="M331.1792 295.0175 L395.8208 364.9825" clip-path="url(#clipPath2)"/>
      <path fill="none" d="M604 207 L604 269" clip-path="url(#clipPath2)"/>
      <path fill="none" d="M614.1792 295.0175 L678.8208 364.9825" clip-path="url(#clipPath2)"/>
      <path fill="none" d="M604 299 L604 361" clip-path="url(#clipPath2)"/>
      <path fill="none" d="M593.8208 295.0175 L529.1792 364.9825" clip-path="url(#clipPath2)"/>
    </g>
  </g>
</svg>
